<svg width="1440" height="82" viewBox="0 0 1440 82" fill="none" xmlns="http://www.w3.org/2000/svg">
<mask id="path-1-inside-1_297080_7250" fill="white">
<path d="M0 0H1440V72H0V0Z"/>
</mask>
<path d="M0 0H1440V72H0V0Z" fill="white"/>
<path d="M1440 71H0V73H1440V71Z" fill="#E7E9FC" mask="url(#path-1-inside-1_297080_7250)"/>
<path d="M1141.41 34.8984V36.2578H1133.61V34.8984H1141.41ZM1138.23 31.5781V39.8594H1136.79V31.5781H1138.23ZM1148.09 29.5625V41H1146.65V31.3672L1143.73 32.4297V31.125L1147.87 29.5625H1148.09ZM1157.41 29.5625V41H1155.97V31.3672L1153.05 32.4297V31.125L1157.19 29.5625H1157.41ZM1166.37 36.4531V36.375C1166.37 35.2396 1166.5 34.2135 1166.76 33.2969C1167.01 32.375 1167.34 31.5677 1167.73 30.875C1168.13 30.1823 1168.55 29.6094 1168.98 29.1562C1169.42 28.6979 1169.82 28.3672 1170.19 28.1641L1170.5 29.1172C1170.19 29.3516 1169.88 29.6745 1169.56 30.0859C1169.25 30.4974 1168.96 31.0026 1168.69 31.6016C1168.43 32.2005 1168.22 32.8958 1168.06 33.6875C1167.9 34.4792 1167.82 35.3698 1167.82 36.3594V36.4688C1167.82 37.4583 1167.9 38.3516 1168.06 39.1484C1168.22 39.9401 1168.43 40.638 1168.69 41.2422C1168.96 41.8464 1169.25 42.3594 1169.56 42.7812C1169.88 43.2083 1170.19 43.5469 1170.5 43.7969L1170.19 44.6719C1169.82 44.4688 1169.42 44.138 1168.98 43.6797C1168.55 43.2266 1168.13 42.6536 1167.73 41.9609C1167.34 41.2734 1167.01 40.4688 1166.76 39.5469C1166.5 38.625 1166.37 37.5938 1166.37 36.4531ZM1179.22 34.4062V36.1406C1179.22 37.0729 1179.13 37.8594 1178.97 38.5C1178.8 39.1406 1178.56 39.6562 1178.25 40.0469C1177.94 40.4375 1177.56 40.7214 1177.12 40.8984C1176.68 41.0703 1176.18 41.1562 1175.63 41.1562C1175.19 41.1562 1174.79 41.1016 1174.42 40.9922C1174.05 40.8828 1173.72 40.7083 1173.42 40.4688C1173.13 40.224 1172.88 39.9062 1172.67 39.5156C1172.46 39.125 1172.3 38.651 1172.19 38.0938C1172.08 37.5365 1172.03 36.8854 1172.03 36.1406V34.4062C1172.03 33.474 1172.11 32.6927 1172.28 32.0625C1172.45 31.4323 1172.69 30.9271 1173.01 30.5469C1173.32 30.1615 1173.69 29.8854 1174.13 29.7188C1174.57 29.5521 1175.07 29.4688 1175.62 29.4688C1176.06 29.4688 1176.46 29.5234 1176.83 29.6328C1177.21 29.737 1177.54 29.9062 1177.83 30.1406C1178.13 30.3698 1178.37 30.6771 1178.58 31.0625C1178.78 31.4427 1178.94 31.9089 1179.05 32.4609C1179.16 33.013 1179.22 33.6615 1179.22 34.4062ZM1177.76 36.375V34.1641C1177.76 33.6536 1177.73 33.2057 1177.67 32.8203C1177.61 32.4297 1177.53 32.0964 1177.41 31.8203C1177.3 31.5443 1177.15 31.3203 1176.97 31.1484C1176.8 30.9766 1176.6 30.8516 1176.37 30.7734C1176.15 30.6901 1175.9 30.6484 1175.62 30.6484C1175.27 30.6484 1174.97 30.7135 1174.7 30.8438C1174.44 30.9688 1174.21 31.1693 1174.03 31.4453C1173.85 31.7214 1173.72 32.0833 1173.62 32.5312C1173.53 32.9792 1173.48 33.5234 1173.48 34.1641V36.375C1173.48 36.8854 1173.51 37.3359 1173.57 37.7266C1173.63 38.1172 1173.72 38.4557 1173.84 38.7422C1173.96 39.0234 1174.11 39.2552 1174.28 39.4375C1174.45 39.6198 1174.65 39.7552 1174.87 39.8438C1175.1 39.9271 1175.36 39.9688 1175.63 39.9688C1175.99 39.9688 1176.3 39.901 1176.56 39.7656C1176.83 39.6302 1177.05 39.4193 1177.22 39.1328C1177.41 38.8411 1177.54 38.4688 1177.63 38.0156C1177.72 37.5573 1177.76 37.0104 1177.76 36.375ZM1188.54 34.4062V36.1406C1188.54 37.0729 1188.45 37.8594 1188.29 38.5C1188.12 39.1406 1187.88 39.6562 1187.57 40.0469C1187.26 40.4375 1186.88 40.7214 1186.44 40.8984C1186 41.0703 1185.5 41.1562 1184.95 41.1562C1184.51 41.1562 1184.11 41.1016 1183.74 40.9922C1183.37 40.8828 1183.04 40.7083 1182.74 40.4688C1182.45 40.224 1182.2 39.9062 1181.99 39.5156C1181.78 39.125 1181.62 38.651 1181.51 38.0938C1181.4 37.5365 1181.35 36.8854 1181.35 36.1406V34.4062C1181.35 33.474 1181.43 32.6927 1181.6 32.0625C1181.77 31.4323 1182.01 30.9271 1182.33 30.5469C1182.64 30.1615 1183.01 29.8854 1183.45 29.7188C1183.89 29.5521 1184.39 29.4688 1184.94 29.4688C1185.38 29.4688 1185.78 29.5234 1186.15 29.6328C1186.53 29.737 1186.86 29.9062 1187.15 30.1406C1187.45 30.3698 1187.69 30.6771 1187.9 31.0625C1188.1 31.4427 1188.26 31.9089 1188.37 32.4609C1188.48 33.013 1188.54 33.6615 1188.54 34.4062ZM1187.08 36.375V34.1641C1187.08 33.6536 1187.05 33.2057 1186.99 32.8203C1186.93 32.4297 1186.85 32.0964 1186.73 31.8203C1186.62 31.5443 1186.47 31.3203 1186.29 31.1484C1186.12 30.9766 1185.92 30.8516 1185.69 30.7734C1185.47 30.6901 1185.22 30.6484 1184.94 30.6484C1184.59 30.6484 1184.29 30.7135 1184.02 30.8438C1183.76 30.9688 1183.53 31.1693 1183.35 31.4453C1183.17 31.7214 1183.04 32.0833 1182.94 32.5312C1182.85 32.9792 1182.8 33.5234 1182.8 34.1641V36.375C1182.8 36.8854 1182.83 37.3359 1182.89 37.7266C1182.95 38.1172 1183.04 38.4557 1183.16 38.7422C1183.28 39.0234 1183.43 39.2552 1183.6 39.4375C1183.77 39.6198 1183.97 39.7552 1184.19 39.8438C1184.42 39.9271 1184.68 39.9688 1184.95 39.9688C1185.31 39.9688 1185.62 39.901 1185.88 39.7656C1186.15 39.6302 1186.37 39.4193 1186.54 39.1328C1186.73 38.8411 1186.86 38.4688 1186.95 38.0156C1187.04 37.5573 1187.08 37.0104 1187.08 36.375ZM1197.86 34.4062V36.1406C1197.86 37.0729 1197.77 37.8594 1197.61 38.5C1197.44 39.1406 1197.2 39.6562 1196.89 40.0469C1196.58 40.4375 1196.2 40.7214 1195.76 40.8984C1195.32 41.0703 1194.82 41.1562 1194.27 41.1562C1193.83 41.1562 1193.43 41.1016 1193.06 40.9922C1192.69 40.8828 1192.36 40.7083 1192.06 40.4688C1191.77 40.224 1191.52 39.9062 1191.31 39.5156C1191.1 39.125 1190.94 38.651 1190.83 38.0938C1190.72 37.5365 1190.67 36.8854 1190.67 36.1406V34.4062C1190.67 33.474 1190.75 32.6927 1190.92 32.0625C1191.09 31.4323 1191.33 30.9271 1191.65 30.5469C1191.96 30.1615 1192.33 29.8854 1192.77 29.7188C1193.21 29.5521 1193.71 29.4688 1194.26 29.4688C1194.7 29.4688 1195.1 29.5234 1195.47 29.6328C1195.85 29.737 1196.18 29.9062 1196.47 30.1406C1196.77 30.3698 1197.01 30.6771 1197.22 31.0625C1197.42 31.4427 1197.58 31.9089 1197.69 32.4609C1197.8 33.013 1197.86 33.6615 1197.86 34.4062ZM1196.4 36.375V34.1641C1196.4 33.6536 1196.37 33.2057 1196.31 32.8203C1196.25 32.4297 1196.17 32.0964 1196.05 31.8203C1195.94 31.5443 1195.79 31.3203 1195.62 31.1484C1195.44 30.9766 1195.24 30.8516 1195.01 30.7734C1194.79 30.6901 1194.54 30.6484 1194.26 30.6484C1193.91 30.6484 1193.61 30.7135 1193.34 30.8438C1193.08 30.9688 1192.85 31.1693 1192.67 31.4453C1192.49 31.7214 1192.36 32.0833 1192.26 32.5312C1192.17 32.9792 1192.12 33.5234 1192.12 34.1641V36.375C1192.12 36.8854 1192.15 37.3359 1192.21 37.7266C1192.27 38.1172 1192.36 38.4557 1192.48 38.7422C1192.6 39.0234 1192.75 39.2552 1192.92 39.4375C1193.09 39.6198 1193.29 39.7552 1193.51 39.8438C1193.74 39.9271 1194 39.9688 1194.27 39.9688C1194.63 39.9688 1194.94 39.901 1195.2 39.7656C1195.47 39.6302 1195.69 39.4193 1195.87 39.1328C1196.05 38.8411 1196.18 38.4688 1196.27 38.0156C1196.36 37.5573 1196.4 37.0104 1196.4 36.375ZM1203.52 36.375V36.4531C1203.52 37.5938 1203.39 38.625 1203.14 39.5469C1202.88 40.4688 1202.56 41.2734 1202.16 41.9609C1201.77 42.6536 1201.35 43.2266 1200.91 43.6797C1200.47 44.138 1200.07 44.4688 1199.7 44.6719L1199.4 43.7969C1199.7 43.5625 1200.01 43.2344 1200.33 42.8125C1200.64 42.3958 1200.93 41.8802 1201.19 41.2656C1201.46 40.6562 1201.67 39.9531 1201.83 39.1562C1201.99 38.3542 1202.08 37.4583 1202.08 36.4688V36.3594C1202.08 35.3698 1201.99 34.4766 1201.82 33.6797C1201.65 32.8776 1201.42 32.1719 1201.15 31.5625C1200.88 30.9531 1200.58 30.4401 1200.27 30.0234C1199.96 29.6016 1199.67 29.276 1199.4 29.0469L1199.7 28.1641C1200.07 28.3672 1200.47 28.6979 1200.91 29.1562C1201.35 29.6094 1201.77 30.1823 1202.16 30.875C1202.56 31.5677 1202.88 32.375 1203.14 33.2969C1203.39 34.2135 1203.52 35.2396 1203.52 36.375ZM1214.97 29.5625V41H1213.53V31.3672L1210.61 32.4297V31.125L1214.75 29.5625H1214.97ZM1224.29 29.5625V41H1222.85V31.3672L1219.93 32.4297V31.125L1224.07 29.5625H1224.29ZM1233.61 29.5625V41H1232.17V31.3672L1229.25 32.4297V31.125L1233.39 29.5625H1233.61ZM1241.35 35.5703V36.7578H1237.54V35.5703H1241.35ZM1247.68 29.5625V41H1246.23V31.3672L1243.32 32.4297V31.125L1247.45 29.5625H1247.68ZM1257 29.5625V41H1255.55V31.3672L1252.64 32.4297V31.125L1256.77 29.5625H1257ZM1264.73 35.5703V36.7578H1260.92V35.5703H1264.73ZM1271.06 29.5625V41H1269.61V31.3672L1266.7 32.4297V31.125L1270.83 29.5625H1271.06ZM1280.38 29.5625V41H1278.93V31.3672L1276.02 32.4297V31.125L1280.15 29.5625H1280.38Z" fill="#434455"/>
<path d="M950.672 32.5469V41H949.219V32.5469H950.672ZM949.109 30.3047C949.109 30.0703 949.18 29.8724 949.32 29.7109C949.466 29.5495 949.68 29.4688 949.961 29.4688C950.237 29.4688 950.448 29.5495 950.594 29.7109C950.745 29.8724 950.82 30.0703 950.82 30.3047C950.82 30.5286 950.745 30.7214 950.594 30.8828C950.448 31.0391 950.237 31.1172 949.961 31.1172C949.68 31.1172 949.466 31.0391 949.32 30.8828C949.18 30.7214 949.109 30.5286 949.109 30.3047ZM954.758 34.3516V41H953.312V32.5469H954.679L954.758 34.3516ZM954.414 36.4531L953.812 36.4297C953.817 35.8516 953.903 35.3177 954.07 34.8281C954.237 34.3333 954.471 33.9036 954.773 33.5391C955.075 33.1745 955.435 32.8932 955.851 32.6953C956.273 32.4922 956.739 32.3906 957.25 32.3906C957.666 32.3906 958.041 32.4479 958.375 32.5625C958.708 32.6719 958.992 32.849 959.226 33.0938C959.466 33.3385 959.648 33.6562 959.773 34.0469C959.898 34.4323 959.961 34.9036 959.961 35.4609V41H958.508V35.4453C958.508 35.0026 958.442 34.6484 958.312 34.3828C958.182 34.112 957.992 33.9167 957.742 33.7969C957.492 33.6719 957.185 33.6094 956.82 33.6094C956.461 33.6094 956.133 33.6849 955.836 33.8359C955.544 33.987 955.291 34.1953 955.078 34.4609C954.869 34.7266 954.705 35.0312 954.586 35.375C954.471 35.7135 954.414 36.0729 954.414 36.4531ZM964.632 41H963.187V31.6562C963.187 31.0469 963.296 30.5339 963.515 30.1172C963.739 29.6953 964.059 29.3776 964.476 29.1641C964.893 28.9453 965.387 28.8359 965.96 28.8359C966.127 28.8359 966.294 28.8464 966.46 28.8672C966.632 28.888 966.799 28.9193 966.96 28.9609L966.882 30.1406C966.773 30.1146 966.648 30.0964 966.507 30.0859C966.372 30.0755 966.236 30.0703 966.101 30.0703C965.794 30.0703 965.528 30.1328 965.304 30.2578C965.085 30.3776 964.919 30.5547 964.804 30.7891C964.689 31.0234 964.632 31.3125 964.632 31.6562V41ZM966.429 32.5469V33.6562H961.851V32.5469H966.429ZM967.976 36.8672V36.6875C967.976 36.0781 968.064 35.513 968.241 34.9922C968.418 34.4661 968.674 34.0104 969.007 33.625C969.34 33.2344 969.744 32.9323 970.218 32.7188C970.692 32.5 971.223 32.3906 971.812 32.3906C972.405 32.3906 972.939 32.5 973.413 32.7188C973.892 32.9323 974.299 33.2344 974.632 33.625C974.97 34.0104 975.228 34.4661 975.405 34.9922C975.582 35.513 975.671 36.0781 975.671 36.6875V36.8672C975.671 37.4766 975.582 38.0417 975.405 38.5625C975.228 39.0833 974.97 39.5391 974.632 39.9297C974.299 40.3151 973.895 40.6172 973.421 40.8359C972.952 41.0495 972.421 41.1562 971.827 41.1562C971.233 41.1562 970.7 41.0495 970.226 40.8359C969.752 40.6172 969.345 40.3151 969.007 39.9297C968.674 39.5391 968.418 39.0833 968.241 38.5625C968.064 38.0417 967.976 37.4766 967.976 36.8672ZM969.421 36.6875V36.8672C969.421 37.2891 969.47 37.6875 969.569 38.0625C969.668 38.4323 969.817 38.7604 970.015 39.0469C970.218 39.3333 970.47 39.5599 970.772 39.7266C971.075 39.888 971.426 39.9688 971.827 39.9688C972.223 39.9688 972.569 39.888 972.866 39.7266C973.168 39.5599 973.418 39.3333 973.616 39.0469C973.814 38.7604 973.963 38.4323 974.062 38.0625C974.166 37.6875 974.218 37.2891 974.218 36.8672V36.6875C974.218 36.2708 974.166 35.8776 974.062 35.5078C973.963 35.1328 973.812 34.8021 973.608 34.5156C973.411 34.224 973.161 33.9948 972.858 33.8281C972.562 33.6615 972.213 33.5781 971.812 33.5781C971.416 33.5781 971.067 33.6615 970.765 33.8281C970.468 33.9948 970.218 34.224 970.015 34.5156C969.817 34.8021 969.668 35.1328 969.569 35.5078C969.47 35.8776 969.421 36.2708 969.421 36.6875ZM990.264 37.0703C990.244 37.5495 990.171 38.0312 990.046 38.5156C989.921 38.9948 989.733 39.4349 989.483 39.8359C989.233 40.237 988.908 40.5599 988.507 40.8047C988.111 41.0443 987.632 41.1641 987.069 41.1641C986.71 41.1641 986.395 41.1016 986.124 40.9766C985.858 40.8464 985.639 40.6615 985.468 40.4219C985.301 40.1823 985.184 39.8932 985.116 39.5547C985.053 39.2161 985.043 38.8385 985.085 38.4219L985.483 34.0938H986.632L986.233 38.4219C986.202 38.8021 986.21 39.112 986.257 39.3516C986.309 39.5911 986.387 39.776 986.491 39.9062C986.595 40.0312 986.712 40.1172 986.843 40.1641C986.978 40.2109 987.108 40.2344 987.233 40.2344C987.546 40.2344 987.824 40.1536 988.069 39.9922C988.314 39.8255 988.52 39.599 988.686 39.3125C988.858 39.0208 988.991 38.6849 989.085 38.3047C989.178 37.9193 989.236 37.5078 989.257 37.0703C989.293 36.2943 989.257 35.5807 989.147 34.9297C989.043 34.2786 988.863 33.7005 988.608 33.1953C988.358 32.6901 988.03 32.263 987.624 31.9141C987.218 31.5651 986.733 31.2995 986.171 31.1172C985.608 30.9349 984.965 30.8438 984.241 30.8438C983.585 30.8438 982.978 30.9453 982.421 31.1484C981.869 31.3464 981.371 31.6328 980.928 32.0078C980.491 32.3828 980.113 32.8333 979.796 33.3594C979.483 33.8854 979.236 34.4792 979.053 35.1406C978.876 35.7969 978.772 36.5052 978.741 37.2656C978.704 38.0469 978.746 38.7656 978.866 39.4219C978.986 40.0729 979.178 40.6536 979.444 41.1641C979.715 41.6797 980.056 42.1146 980.468 42.4688C980.879 42.8281 981.356 43.099 981.897 43.2812C982.439 43.4688 983.043 43.5625 983.71 43.5625C984.168 43.5625 984.632 43.5078 985.1 43.3984C985.574 43.2891 985.97 43.1406 986.288 42.9531L986.585 43.8438C986.22 44.0781 985.764 44.2526 985.218 44.3672C984.676 44.4818 984.163 44.5391 983.678 44.5391C982.887 44.5391 982.163 44.4297 981.507 44.2109C980.856 43.9974 980.277 43.6823 979.772 43.2656C979.272 42.8542 978.856 42.3516 978.522 41.7578C978.189 41.1693 977.944 40.4974 977.788 39.7422C977.632 38.987 977.572 38.1615 977.608 37.2656C977.645 36.4115 977.772 35.6068 977.991 34.8516C978.215 34.0964 978.52 33.4115 978.905 32.7969C979.29 32.1823 979.749 31.6536 980.28 31.2109C980.816 30.763 981.418 30.4193 982.085 30.1797C982.757 29.9401 983.486 29.8203 984.272 29.8203C985.074 29.8203 985.801 29.9297 986.452 30.1484C987.103 30.3672 987.673 30.6823 988.163 31.0938C988.658 31.5052 989.066 32.0078 989.389 32.6016C989.712 33.1953 989.947 33.8672 990.093 34.6172C990.244 35.3672 990.301 36.1849 990.264 37.0703ZM982.241 37.7344C982.204 38.099 982.204 38.4245 982.241 38.7109C982.277 38.9974 982.348 39.2396 982.452 39.4375C982.556 39.6354 982.691 39.7865 982.858 39.8906C983.03 39.9896 983.231 40.0391 983.46 40.0391C983.611 40.0391 983.77 40.0026 983.936 39.9297C984.103 39.8516 984.267 39.7318 984.428 39.5703C984.59 39.4089 984.741 39.1979 984.882 38.9375C985.022 38.6771 985.139 38.3646 985.233 38L985.749 38.5625C985.629 38.9896 985.473 39.3646 985.28 39.6875C985.093 40.0104 984.882 40.2812 984.647 40.5C984.413 40.7188 984.163 40.8854 983.897 41C983.637 41.1094 983.371 41.1641 983.1 41.1641C982.72 41.1641 982.387 41.0833 982.1 40.9219C981.814 40.7552 981.582 40.5208 981.405 40.2188C981.228 39.9167 981.103 39.5573 981.03 39.1406C980.962 38.7188 980.952 38.25 980.999 37.7344C981.046 37.1875 981.142 36.6823 981.288 36.2188C981.434 35.7552 981.613 35.3411 981.827 34.9766C982.046 34.612 982.29 34.3021 982.561 34.0469C982.837 33.7917 983.129 33.599 983.436 33.4688C983.744 33.3333 984.059 33.2656 984.382 33.2656C984.944 33.2656 985.387 33.349 985.71 33.5156C986.033 33.6771 986.34 33.8698 986.632 34.0938L985.968 34.8672C985.816 34.7214 985.619 34.5859 985.374 34.4609C985.129 34.3359 984.84 34.2734 984.507 34.2734C984.22 34.2734 983.952 34.3464 983.702 34.4922C983.452 34.638 983.225 34.8568 983.022 35.1484C982.824 35.4401 982.658 35.8021 982.522 36.2344C982.387 36.6615 982.293 37.1615 982.241 37.7344ZM997.827 39.3594V29H999.28V41H997.952L997.827 39.3594ZM992.139 36.8672V36.7031C992.139 36.0573 992.217 35.4714 992.373 34.9453C992.535 34.4141 992.761 33.9583 993.053 33.5781C993.35 33.1979 993.702 32.9062 994.108 32.7031C994.519 32.4948 994.978 32.3906 995.483 32.3906C996.014 32.3906 996.478 32.4844 996.873 32.6719C997.274 32.8542 997.613 33.1224 997.889 33.4766C998.17 33.8255 998.392 34.2474 998.553 34.7422C998.715 35.237 998.827 35.7969 998.889 36.4219V37.1406C998.832 37.7604 998.72 38.3177 998.553 38.8125C998.392 39.3073 998.17 39.7292 997.889 40.0781C997.613 40.4271 997.274 40.6953 996.873 40.8828C996.472 41.0651 996.004 41.1562 995.467 41.1562C994.972 41.1562 994.519 41.0495 994.108 40.8359C993.702 40.6224 993.35 40.3229 993.053 39.9375C992.761 39.5521 992.535 39.099 992.373 38.5781C992.217 38.0521 992.139 37.4818 992.139 36.8672ZM993.592 36.7031V36.8672C993.592 37.2891 993.634 37.6849 993.717 38.0547C993.806 38.4245 993.941 38.75 994.123 39.0312C994.306 39.3125 994.537 39.5339 994.819 39.6953C995.1 39.8516 995.436 39.9297 995.827 39.9297C996.306 39.9297 996.699 39.8281 997.006 39.625C997.319 39.4219 997.569 39.1536 997.756 38.8203C997.944 38.487 998.09 38.125 998.194 37.7344V35.8516C998.131 35.5651 998.04 35.2891 997.92 35.0234C997.806 34.7526 997.655 34.513 997.467 34.3047C997.285 34.0911 997.058 33.9219 996.787 33.7969C996.522 33.6719 996.207 33.6094 995.842 33.6094C995.446 33.6094 995.105 33.6927 994.819 33.8594C994.537 34.0208 994.306 34.2448 994.123 34.5312C993.941 34.8125 993.806 35.1406 993.717 35.5156C993.634 35.8854 993.592 36.2812 993.592 36.7031ZM1005.36 41.1562C1004.77 41.1562 1004.24 41.0573 1003.76 40.8594C1003.28 40.6562 1002.87 40.3724 1002.53 40.0078C1002.19 39.6432 1001.93 39.2109 1001.75 38.7109C1001.57 38.2109 1001.47 37.6641 1001.47 37.0703V36.7422C1001.47 36.0547 1001.58 35.4427 1001.78 34.9062C1001.98 34.3646 1002.26 33.9062 1002.61 33.5312C1002.96 33.1562 1003.35 32.8724 1003.79 32.6797C1004.24 32.487 1004.7 32.3906 1005.17 32.3906C1005.77 32.3906 1006.29 32.4948 1006.73 32.7031C1007.18 32.9115 1007.54 33.2031 1007.82 33.5781C1008.1 33.9479 1008.31 34.3854 1008.44 34.8906C1008.58 35.3906 1008.65 35.9375 1008.65 36.5312V37.1797H1002.33V36H1007.2V35.8906C1007.18 35.5156 1007.1 35.151 1006.97 34.7969C1006.84 34.4427 1006.63 34.151 1006.34 33.9219C1006.06 33.6927 1005.66 33.5781 1005.17 33.5781C1004.84 33.5781 1004.54 33.6484 1004.26 33.7891C1003.99 33.9245 1003.75 34.1276 1003.55 34.3984C1003.35 34.6693 1003.2 35 1003.09 35.3906C1002.98 35.7812 1002.93 36.2318 1002.93 36.7422V37.0703C1002.93 37.4714 1002.98 37.849 1003.09 38.2031C1003.21 38.5521 1003.37 38.8594 1003.58 39.125C1003.8 39.3906 1004.07 39.599 1004.37 39.75C1004.69 39.901 1005.04 39.9766 1005.44 39.9766C1005.95 39.9766 1006.38 39.8724 1006.73 39.6641C1007.09 39.4557 1007.4 39.1771 1007.66 38.8281L1008.54 39.5234C1008.35 39.7995 1008.12 40.0625 1007.84 40.3125C1007.56 40.5625 1007.21 40.7656 1006.8 40.9219C1006.4 41.0781 1005.91 41.1562 1005.36 41.1562ZM1013.12 39.6953L1015.43 32.5469H1016.9L1013.87 41H1012.9L1013.12 39.6953ZM1011.19 32.5469L1013.57 39.7344L1013.73 41H1012.76L1009.7 32.5469H1011.19ZM1023.54 38.7578C1023.54 38.5495 1023.49 38.3568 1023.4 38.1797C1023.31 37.9974 1023.12 37.8333 1022.84 37.6875C1022.57 37.5365 1022.15 37.4062 1021.59 37.2969C1021.12 37.1979 1020.7 37.0807 1020.32 36.9453C1019.94 36.8099 1019.62 36.6458 1019.36 36.4531C1019.1 36.2604 1018.9 36.0339 1018.76 35.7734C1018.61 35.513 1018.54 35.2083 1018.54 34.8594C1018.54 34.526 1018.62 34.2109 1018.76 33.9141C1018.91 33.6172 1019.13 33.3542 1019.4 33.125C1019.67 32.8958 1020 32.7161 1020.39 32.5859C1020.77 32.4557 1021.2 32.3906 1021.68 32.3906C1022.35 32.3906 1022.93 32.5104 1023.41 32.75C1023.89 32.9896 1024.26 33.3099 1024.51 33.7109C1024.77 34.1068 1024.9 34.5469 1024.9 35.0312H1023.45C1023.45 34.7969 1023.38 34.5703 1023.24 34.3516C1023.1 34.1276 1022.9 33.9427 1022.64 33.7969C1022.38 33.651 1022.06 33.5781 1021.68 33.5781C1021.28 33.5781 1020.95 33.6406 1020.7 33.7656C1020.46 33.8854 1020.28 34.0391 1020.16 34.2266C1020.05 34.4141 1020 34.612 1020 34.8203C1020 34.9766 1020.02 35.1172 1020.08 35.2422C1020.13 35.362 1020.23 35.474 1020.37 35.5781C1020.51 35.6771 1020.71 35.7708 1020.97 35.8594C1021.22 35.9479 1021.55 36.0365 1021.94 36.125C1022.64 36.2812 1023.21 36.4688 1023.65 36.6875C1024.1 36.9062 1024.43 37.1745 1024.65 37.4922C1024.87 37.8099 1024.98 38.1953 1024.98 38.6484C1024.98 39.0182 1024.9 39.3568 1024.75 39.6641C1024.6 39.9714 1024.38 40.237 1024.08 40.4609C1023.8 40.6797 1023.45 40.8516 1023.05 40.9766C1022.66 41.0964 1022.21 41.1562 1021.72 41.1562C1020.97 41.1562 1020.34 41.0234 1019.83 40.7578C1019.31 40.4922 1018.92 40.1484 1018.65 39.7266C1018.39 39.3047 1018.26 38.8594 1018.26 38.3906H1019.71C1019.73 38.7865 1019.84 39.1016 1020.05 39.3359C1020.26 39.5651 1020.52 39.7292 1020.82 39.8281C1021.12 39.9219 1021.42 39.9688 1021.72 39.9688C1022.11 39.9688 1022.44 39.9167 1022.71 39.8125C1022.98 39.7083 1023.18 39.5651 1023.33 39.3828C1023.47 39.2005 1023.54 38.9922 1023.54 38.7578ZM1030.74 32.5469V33.6562H1026.17V32.5469H1030.74ZM1027.72 30.4922H1029.16V38.9062C1029.16 39.1927 1029.21 39.4089 1029.29 39.5547C1029.38 39.7005 1029.5 39.7969 1029.64 39.8438C1029.78 39.8906 1029.93 39.9141 1030.09 39.9141C1030.21 39.9141 1030.34 39.9036 1030.47 39.8828C1030.6 39.8568 1030.7 39.8359 1030.77 39.8203L1030.78 41C1030.66 41.0365 1030.51 41.0703 1030.33 41.1016C1030.14 41.138 1029.92 41.1562 1029.66 41.1562C1029.31 41.1562 1028.98 41.0859 1028.68 40.9453C1028.39 40.8047 1028.15 40.5703 1027.97 40.2422C1027.8 39.9089 1027.72 39.4609 1027.72 38.8984V30.4922ZM1037.93 39.0469V32.5469H1039.38V41H1038L1037.93 39.0469ZM1038.2 37.2656L1038.8 37.25C1038.8 37.8125 1038.74 38.3333 1038.62 38.8125C1038.51 39.2865 1038.32 39.6979 1038.06 40.0469C1037.8 40.3958 1037.46 40.6693 1037.04 40.8672C1036.61 41.0599 1036.1 41.1562 1035.5 41.1562C1035.09 41.1562 1034.71 41.0964 1034.36 40.9766C1034.03 40.8568 1033.73 40.6719 1033.49 40.4219C1033.24 40.1719 1033.05 39.8464 1032.92 39.4453C1032.79 39.0443 1032.72 38.5625 1032.72 38V32.5469H1034.17V38.0156C1034.17 38.3958 1034.21 38.7109 1034.29 38.9609C1034.38 39.2057 1034.5 39.401 1034.65 39.5469C1034.8 39.6875 1034.96 39.7865 1035.15 39.8438C1035.33 39.901 1035.53 39.9297 1035.72 39.9297C1036.34 39.9297 1036.82 39.8125 1037.18 39.5781C1037.54 39.3385 1037.8 39.0182 1037.96 38.6172C1038.12 38.2109 1038.2 37.7604 1038.2 37.2656ZM1047.23 39.3594V29H1048.68V41H1047.36L1047.23 39.3594ZM1041.54 36.8672V36.7031C1041.54 36.0573 1041.62 35.4714 1041.78 34.9453C1041.94 34.4141 1042.17 33.9583 1042.46 33.5781C1042.75 33.1979 1043.11 32.9062 1043.51 32.7031C1043.92 32.4948 1044.38 32.3906 1044.89 32.3906C1045.42 32.3906 1045.88 32.4844 1046.28 32.6719C1046.68 32.8542 1047.02 33.1224 1047.29 33.4766C1047.57 33.8255 1047.8 34.2474 1047.96 34.7422C1048.12 35.237 1048.23 35.7969 1048.29 36.4219V37.1406C1048.24 37.7604 1048.12 38.3177 1047.96 38.8125C1047.8 39.3073 1047.57 39.7292 1047.29 40.0781C1047.02 40.4271 1046.68 40.6953 1046.28 40.8828C1045.88 41.0651 1045.41 41.1562 1044.87 41.1562C1044.38 41.1562 1043.92 41.0495 1043.51 40.8359C1043.11 40.6224 1042.75 40.3229 1042.46 39.9375C1042.17 39.5521 1041.94 39.099 1041.78 38.5781C1041.62 38.0521 1041.54 37.4818 1041.54 36.8672ZM1043 36.7031V36.8672C1043 37.2891 1043.04 37.6849 1043.12 38.0547C1043.21 38.4245 1043.35 38.75 1043.53 39.0312C1043.71 39.3125 1043.94 39.5339 1044.22 39.6953C1044.5 39.8516 1044.84 39.9297 1045.23 39.9297C1045.71 39.9297 1046.1 39.8281 1046.41 39.625C1046.72 39.4219 1046.97 39.1536 1047.16 38.8203C1047.35 38.487 1047.49 38.125 1047.6 37.7344V35.8516C1047.54 35.5651 1047.44 35.2891 1047.32 35.0234C1047.21 34.7526 1047.06 34.513 1046.87 34.3047C1046.69 34.0911 1046.46 33.9219 1046.19 33.7969C1045.93 33.6719 1045.61 33.6094 1045.25 33.6094C1044.85 33.6094 1044.51 33.6927 1044.22 33.8594C1043.94 34.0208 1043.71 34.2448 1043.53 34.5312C1043.35 34.8125 1043.21 35.1406 1043.12 35.5156C1043.04 35.8854 1043 36.2812 1043 36.7031ZM1052.82 32.5469V41H1051.37V32.5469H1052.82ZM1051.26 30.3047C1051.26 30.0703 1051.33 29.8724 1051.47 29.7109C1051.62 29.5495 1051.83 29.4688 1052.11 29.4688C1052.39 29.4688 1052.6 29.5495 1052.75 29.7109C1052.9 29.8724 1052.97 30.0703 1052.97 30.3047C1052.97 30.5286 1052.9 30.7214 1052.75 30.8828C1052.6 31.0391 1052.39 31.1172 1052.11 31.1172C1051.83 31.1172 1051.62 31.0391 1051.47 30.8828C1051.33 30.7214 1051.26 30.5286 1051.26 30.3047ZM1055.08 36.8672V36.6875C1055.08 36.0781 1055.17 35.513 1055.35 34.9922C1055.52 34.4661 1055.78 34.0104 1056.11 33.625C1056.45 33.2344 1056.85 32.9323 1057.32 32.7188C1057.8 32.5 1058.33 32.3906 1058.92 32.3906C1059.51 32.3906 1060.05 32.5 1060.52 32.7188C1061 32.9323 1061.4 33.2344 1061.74 33.625C1062.08 34.0104 1062.33 34.4661 1062.51 34.9922C1062.69 35.513 1062.78 36.0781 1062.78 36.6875V36.8672C1062.78 37.4766 1062.69 38.0417 1062.51 38.5625C1062.33 39.0833 1062.08 39.5391 1061.74 39.9297C1061.4 40.3151 1061 40.6172 1060.53 40.8359C1060.06 41.0495 1059.53 41.1562 1058.93 41.1562C1058.34 41.1562 1057.81 41.0495 1057.33 40.8359C1056.86 40.6172 1056.45 40.3151 1056.11 39.9297C1055.78 39.5391 1055.52 39.0833 1055.35 38.5625C1055.17 38.0417 1055.08 37.4766 1055.08 36.8672ZM1056.53 36.6875V36.8672C1056.53 37.2891 1056.58 37.6875 1056.68 38.0625C1056.77 38.4323 1056.92 38.7604 1057.12 39.0469C1057.32 39.3333 1057.58 39.5599 1057.88 39.7266C1058.18 39.888 1058.53 39.9688 1058.93 39.9688C1059.33 39.9688 1059.68 39.888 1059.97 39.7266C1060.27 39.5599 1060.52 39.3333 1060.72 39.0469C1060.92 38.7604 1061.07 38.4323 1061.17 38.0625C1061.27 37.6875 1061.32 37.2891 1061.32 36.8672V36.6875C1061.32 36.2708 1061.27 35.8776 1061.17 35.5078C1061.07 35.1328 1060.92 34.8021 1060.71 34.5156C1060.52 34.224 1060.27 33.9948 1059.96 33.8281C1059.67 33.6615 1059.32 33.5781 1058.92 33.5781C1058.52 33.5781 1058.17 33.6615 1057.87 33.8281C1057.57 33.9948 1057.32 34.224 1057.12 34.5156C1056.92 34.8021 1056.77 35.1328 1056.68 35.5078C1056.58 35.8776 1056.53 36.2708 1056.53 36.6875ZM1064.93 40.2344C1064.93 39.9896 1065.01 39.7839 1065.16 39.6172C1065.32 39.4453 1065.54 39.3594 1065.83 39.3594C1066.12 39.3594 1066.34 39.4453 1066.5 39.6172C1066.65 39.7839 1066.73 39.9896 1066.73 40.2344C1066.73 40.474 1066.65 40.6771 1066.5 40.8438C1066.34 41.0104 1066.12 41.0938 1065.83 41.0938C1065.54 41.0938 1065.32 41.0104 1065.16 40.8438C1065.01 40.6771 1064.93 40.474 1064.93 40.2344ZM1072.83 39.9688C1073.18 39.9688 1073.49 39.8984 1073.78 39.7578C1074.08 39.6172 1074.32 39.4245 1074.5 39.1797C1074.69 38.9297 1074.8 38.6458 1074.82 38.3281H1076.2C1076.17 38.8281 1076 39.2943 1075.69 39.7266C1075.38 40.1536 1074.98 40.5 1074.48 40.7656C1073.98 41.026 1073.43 41.1562 1072.83 41.1562C1072.2 41.1562 1071.64 41.0443 1071.17 40.8203C1070.7 40.5964 1070.31 40.2891 1070 39.8984C1069.69 39.5078 1069.46 39.0599 1069.3 38.5547C1069.15 38.0443 1069.07 37.5052 1069.07 36.9375V36.6094C1069.07 36.0417 1069.15 35.5052 1069.3 35C1069.46 34.4896 1069.69 34.0391 1070 33.6484C1070.31 33.2578 1070.7 32.9505 1071.17 32.7266C1071.64 32.5026 1072.2 32.3906 1072.83 32.3906C1073.49 32.3906 1074.07 32.526 1074.57 32.7969C1075.06 33.0625 1075.45 33.4271 1075.73 33.8906C1076.02 34.349 1076.17 34.8698 1076.2 35.4531H1074.82C1074.8 35.1042 1074.7 34.7891 1074.53 34.5078C1074.36 34.2266 1074.13 34.0026 1073.84 33.8359C1073.55 33.6641 1073.22 33.5781 1072.83 33.5781C1072.39 33.5781 1072.02 33.6667 1071.71 33.8438C1071.42 34.0156 1071.18 34.25 1071 34.5469C1070.83 34.8385 1070.71 35.1641 1070.63 35.5234C1070.56 35.8776 1070.52 36.2396 1070.52 36.6094V36.9375C1070.52 37.3073 1070.56 37.6719 1070.63 38.0312C1070.7 38.3906 1070.82 38.7161 1071 39.0078C1071.17 39.2995 1071.41 39.5339 1071.71 39.7109C1072.01 39.8828 1072.38 39.9688 1072.83 39.9688ZM1077.76 36.8672V36.6875C1077.76 36.0781 1077.85 35.513 1078.03 34.9922C1078.2 34.4661 1078.46 34.0104 1078.79 33.625C1079.13 33.2344 1079.53 32.9323 1080 32.7188C1080.48 32.5 1081.01 32.3906 1081.6 32.3906C1082.19 32.3906 1082.72 32.5 1083.2 32.7188C1083.68 32.9323 1084.08 33.2344 1084.42 33.625C1084.76 34.0104 1085.01 34.4661 1085.19 34.9922C1085.37 35.513 1085.46 36.0781 1085.46 36.6875V36.8672C1085.46 37.4766 1085.37 38.0417 1085.19 38.5625C1085.01 39.0833 1084.76 39.5391 1084.42 39.9297C1084.08 40.3151 1083.68 40.6172 1083.21 40.8359C1082.74 41.0495 1082.21 41.1562 1081.61 41.1562C1081.02 41.1562 1080.48 41.0495 1080.01 40.8359C1079.54 40.6172 1079.13 40.3151 1078.79 39.9297C1078.46 39.5391 1078.2 39.0833 1078.03 38.5625C1077.85 38.0417 1077.76 37.4766 1077.76 36.8672ZM1079.21 36.6875V36.8672C1079.21 37.2891 1079.26 37.6875 1079.35 38.0625C1079.45 38.4323 1079.6 38.7604 1079.8 39.0469C1080 39.3333 1080.26 39.5599 1080.56 39.7266C1080.86 39.888 1081.21 39.9688 1081.61 39.9688C1082.01 39.9688 1082.35 39.888 1082.65 39.7266C1082.95 39.5599 1083.2 39.3333 1083.4 39.0469C1083.6 38.7604 1083.75 38.4323 1083.85 38.0625C1083.95 37.6875 1084 37.2891 1084 36.8672V36.6875C1084 36.2708 1083.95 35.8776 1083.85 35.5078C1083.75 35.1328 1083.6 34.8021 1083.39 34.5156C1083.2 34.224 1082.95 33.9948 1082.64 33.8281C1082.35 33.6615 1082 33.5781 1081.6 33.5781C1081.2 33.5781 1080.85 33.6615 1080.55 33.8281C1080.25 33.9948 1080 34.224 1079.8 34.5156C1079.6 34.8021 1079.45 35.1328 1079.35 35.5078C1079.26 35.8776 1079.21 36.2708 1079.21 36.6875ZM1089.03 34.2266V41H1087.57V32.5469H1088.95L1089.03 34.2266ZM1088.73 36.4531L1088.06 36.4297C1088.06 35.8516 1088.14 35.3177 1088.28 34.8281C1088.43 34.3333 1088.65 33.9036 1088.93 33.5391C1089.22 33.1745 1089.58 32.8932 1090 32.6953C1090.43 32.4922 1090.92 32.3906 1091.49 32.3906C1091.88 32.3906 1092.25 32.4479 1092.58 32.5625C1092.91 32.6719 1093.2 32.8464 1093.45 33.0859C1093.69 33.3255 1093.88 33.6328 1094.02 34.0078C1094.15 34.3828 1094.22 34.8359 1094.22 35.3672V41H1092.78V35.4375C1092.78 34.9948 1092.7 34.6406 1092.55 34.375C1092.4 34.1094 1092.2 33.9167 1091.92 33.7969C1091.65 33.6719 1091.34 33.6094 1090.97 33.6094C1090.54 33.6094 1090.19 33.6849 1089.9 33.8359C1089.61 33.987 1089.39 34.1953 1089.21 34.4609C1089.04 34.7266 1088.92 35.0312 1088.84 35.375C1088.77 35.7135 1088.73 36.0729 1088.73 36.4531ZM1094.21 35.6562L1093.24 35.9531C1093.24 35.4896 1093.32 35.0443 1093.46 34.6172C1093.61 34.1901 1093.83 33.8099 1094.11 33.4766C1094.4 33.1432 1094.75 32.8802 1095.17 32.6875C1095.58 32.4896 1096.06 32.3906 1096.6 32.3906C1097.05 32.3906 1097.45 32.4505 1097.8 32.5703C1098.15 32.6901 1098.45 32.875 1098.69 33.125C1098.93 33.3698 1099.12 33.6849 1099.24 34.0703C1099.37 34.4557 1099.43 34.9141 1099.43 35.4453V41H1097.98V35.4297C1097.98 34.9557 1097.9 34.5885 1097.75 34.3281C1097.61 34.0625 1097.4 33.8776 1097.13 33.7734C1096.86 33.6641 1096.54 33.6094 1096.17 33.6094C1095.86 33.6094 1095.58 33.6641 1095.33 33.7734C1095.09 33.8828 1094.88 34.0339 1094.71 34.2266C1094.55 34.4141 1094.42 34.6302 1094.33 34.875C1094.25 35.1198 1094.21 35.3802 1094.21 35.6562Z" fill="#434455"/>
<path d="M354.141 38.0703C354.141 37.8359 354.104 37.6276 354.031 37.4453C353.964 37.263 353.841 37.0964 353.664 36.9453C353.487 36.7943 353.237 36.6484 352.914 36.5078C352.596 36.362 352.19 36.2135 351.695 36.0625C351.154 35.8958 350.654 35.7109 350.195 35.5078C349.742 35.2995 349.346 35.0599 349.008 34.7891C348.669 34.513 348.406 34.1979 348.219 33.8438C348.031 33.4844 347.938 33.0703 347.938 32.6016C347.938 32.138 348.034 31.7161 348.227 31.3359C348.424 30.9557 348.703 30.6276 349.062 30.3516C349.427 30.0703 349.857 29.8542 350.352 29.7031C350.846 29.5469 351.393 29.4688 351.992 29.4688C352.836 29.4688 353.562 29.625 354.172 29.9375C354.786 30.25 355.258 30.6693 355.586 31.1953C355.919 31.7214 356.086 32.3021 356.086 32.9375H354.141C354.141 32.5625 354.06 32.2318 353.898 31.9453C353.742 31.6536 353.503 31.4245 353.18 31.2578C352.862 31.0911 352.458 31.0078 351.969 31.0078C351.505 31.0078 351.12 31.0781 350.812 31.2188C350.505 31.3594 350.276 31.5495 350.125 31.7891C349.974 32.0286 349.898 32.2995 349.898 32.6016C349.898 32.8151 349.948 33.0104 350.047 33.1875C350.146 33.3594 350.297 33.5208 350.5 33.6719C350.703 33.8177 350.958 33.9557 351.266 34.0859C351.573 34.2161 351.935 34.3411 352.352 34.4609C352.982 34.6484 353.531 34.8568 354 35.0859C354.469 35.3099 354.859 35.5651 355.172 35.8516C355.484 36.138 355.719 36.4635 355.875 36.8281C356.031 37.1875 356.109 37.5964 356.109 38.0547C356.109 38.5339 356.013 38.9661 355.82 39.3516C355.628 39.7318 355.352 40.0573 354.992 40.3281C354.638 40.5938 354.211 40.7995 353.711 40.9453C353.216 41.0859 352.664 41.1562 352.055 41.1562C351.508 41.1562 350.969 41.0833 350.438 40.9375C349.911 40.7917 349.432 40.5703 349 40.2734C348.568 39.9714 348.224 39.5964 347.969 39.1484C347.714 38.6953 347.586 38.1667 347.586 37.5625H349.547C349.547 37.9323 349.609 38.2474 349.734 38.5078C349.865 38.7682 350.044 38.9818 350.273 39.1484C350.503 39.3099 350.768 39.4297 351.07 39.5078C351.378 39.5859 351.706 39.625 352.055 39.625C352.513 39.625 352.896 39.5599 353.203 39.4297C353.516 39.2995 353.75 39.1172 353.906 38.8828C354.062 38.6484 354.141 38.3776 354.141 38.0703ZM361.851 32.5469V33.9219H357.086V32.5469H361.851ZM358.461 30.4766H360.343V38.6641C360.343 38.9245 360.38 39.125 360.453 39.2656C360.531 39.401 360.638 39.4922 360.773 39.5391C360.909 39.5859 361.067 39.6094 361.25 39.6094C361.38 39.6094 361.505 39.6016 361.625 39.5859C361.744 39.5703 361.841 39.5547 361.914 39.5391L361.922 40.9766C361.765 41.0234 361.583 41.0651 361.375 41.1016C361.172 41.138 360.937 41.1562 360.672 41.1562C360.239 41.1562 359.856 41.0807 359.523 40.9297C359.19 40.7734 358.929 40.5208 358.742 40.1719C358.554 39.8229 358.461 39.3594 358.461 38.7812V30.4766ZM368.71 39.0078V32.5469H370.601V41H368.82L368.71 39.0078ZM368.976 37.25L369.609 37.2344C369.609 37.8021 369.546 38.3255 369.421 38.8047C369.296 39.2786 369.104 39.6927 368.843 40.0469C368.583 40.3958 368.249 40.6693 367.843 40.8672C367.437 41.0599 366.95 41.1562 366.382 41.1562C365.971 41.1562 365.593 41.0964 365.249 40.9766C364.906 40.8568 364.609 40.6719 364.359 40.4219C364.114 40.1719 363.924 39.8464 363.788 39.4453C363.653 39.0443 363.585 38.5651 363.585 38.0078V32.5469H365.468V38.0234C365.468 38.3307 365.505 38.5885 365.578 38.7969C365.65 39 365.749 39.1641 365.874 39.2891C365.999 39.4141 366.145 39.5026 366.312 39.5547C366.479 39.6068 366.656 39.6328 366.843 39.6328C367.38 39.6328 367.801 39.5286 368.109 39.3203C368.421 39.1068 368.643 38.8203 368.773 38.4609C368.908 38.1016 368.976 37.6979 368.976 37.25ZM378.007 39.25V29H379.897V41H378.187L378.007 39.25ZM372.507 36.8672V36.7031C372.507 36.0625 372.582 35.4792 372.733 34.9531C372.884 34.4219 373.103 33.9661 373.39 33.5859C373.676 33.2005 374.025 32.9062 374.437 32.7031C374.848 32.4948 375.312 32.3906 375.827 32.3906C376.338 32.3906 376.786 32.4896 377.171 32.6875C377.556 32.8854 377.884 33.1693 378.155 33.5391C378.426 33.9036 378.642 34.3411 378.804 34.8516C378.965 35.3568 379.08 35.9193 379.147 36.5391V37.0625C379.08 37.6667 378.965 38.2188 378.804 38.7188C378.642 39.2188 378.426 39.651 378.155 40.0156C377.884 40.3802 377.554 40.6615 377.163 40.8594C376.778 41.0573 376.327 41.1562 375.812 41.1562C375.301 41.1562 374.84 41.0495 374.429 40.8359C374.022 40.6224 373.676 40.3229 373.39 39.9375C373.103 39.5521 372.884 39.099 372.733 38.5781C372.582 38.0521 372.507 37.4818 372.507 36.8672ZM374.39 36.7031V36.8672C374.39 37.2526 374.424 37.612 374.491 37.9453C374.564 38.2786 374.676 38.5729 374.827 38.8281C374.978 39.0781 375.174 39.276 375.413 39.4219C375.658 39.5625 375.95 39.6328 376.288 39.6328C376.715 39.6328 377.067 39.5391 377.343 39.3516C377.619 39.1641 377.835 38.9115 377.991 38.5938C378.153 38.2708 378.262 37.9115 378.319 37.5156V36.1016C378.288 35.7943 378.223 35.5078 378.124 35.2422C378.03 34.9766 377.903 34.7448 377.741 34.5469C377.58 34.3438 377.379 34.1875 377.14 34.0781C376.905 33.9635 376.627 33.9062 376.304 33.9062C375.96 33.9062 375.668 33.9792 375.429 34.125C375.189 34.2708 374.991 34.4714 374.835 34.7266C374.684 34.9818 374.572 35.2786 374.499 35.6172C374.426 35.9557 374.39 36.3177 374.39 36.7031ZM384.202 32.5469V41H382.311V32.5469H384.202ZM382.186 30.3281C382.186 30.0417 382.28 29.8047 382.467 29.6172C382.66 29.4245 382.926 29.3281 383.264 29.3281C383.598 29.3281 383.861 29.4245 384.053 29.6172C384.246 29.8047 384.342 30.0417 384.342 30.3281C384.342 30.6094 384.246 30.8438 384.053 31.0312C383.861 31.2188 383.598 31.3125 383.264 31.3125C382.926 31.3125 382.66 31.2188 382.467 31.0312C382.28 30.8438 382.186 30.6094 382.186 30.3281ZM386.225 36.8672V36.6875C386.225 36.0781 386.314 35.513 386.491 34.9922C386.668 34.4661 386.923 34.0104 387.256 33.625C387.595 33.2344 388.006 32.9323 388.491 32.7188C388.98 32.5 389.532 32.3906 390.147 32.3906C390.767 32.3906 391.319 32.5 391.803 32.7188C392.293 32.9323 392.707 33.2344 393.045 33.625C393.384 34.0104 393.642 34.4661 393.819 34.9922C393.996 35.513 394.084 36.0781 394.084 36.6875V36.8672C394.084 37.4766 393.996 38.0417 393.819 38.5625C393.642 39.0833 393.384 39.5391 393.045 39.9297C392.707 40.3151 392.295 40.6172 391.811 40.8359C391.327 41.0495 390.777 41.1562 390.162 41.1562C389.543 41.1562 388.988 41.0495 388.498 40.8359C388.014 40.6172 387.603 40.3151 387.264 39.9297C386.926 39.5391 386.668 39.0833 386.491 38.5625C386.314 38.0417 386.225 37.4766 386.225 36.8672ZM388.108 36.6875V36.8672C388.108 37.2474 388.147 37.6068 388.225 37.9453C388.303 38.2839 388.426 38.5807 388.592 38.8359C388.759 39.0911 388.972 39.2917 389.233 39.4375C389.493 39.5833 389.803 39.6562 390.162 39.6562C390.511 39.6562 390.814 39.5833 391.069 39.4375C391.329 39.2917 391.543 39.0911 391.709 38.8359C391.876 38.5807 391.998 38.2839 392.077 37.9453C392.16 37.6068 392.202 37.2474 392.202 36.8672V36.6875C392.202 36.3125 392.16 35.9583 392.077 35.625C391.998 35.2865 391.873 34.987 391.702 34.7266C391.535 34.4661 391.321 34.263 391.061 34.1172C390.806 33.9661 390.501 33.8906 390.147 33.8906C389.793 33.8906 389.485 33.9661 389.225 34.1172C388.97 34.263 388.759 34.4661 388.592 34.7266C388.426 34.987 388.303 35.2865 388.225 35.625C388.147 35.9583 388.108 36.3125 388.108 36.6875Z" fill="#2E2F42"/>
<path d="M440.477 36.7578H437.516V35.2031H440.477C440.992 35.2031 441.409 35.1198 441.727 34.9531C442.044 34.7865 442.276 34.5573 442.422 34.2656C442.573 33.9688 442.648 33.6302 442.648 33.25C442.648 32.8906 442.573 32.5547 442.422 32.2422C442.276 31.9245 442.044 31.6693 441.727 31.4766C441.409 31.2839 440.992 31.1875 440.477 31.1875H438.117V41H436.156V29.625H440.477C441.357 29.625 442.104 29.7812 442.719 30.0938C443.339 30.401 443.81 30.8281 444.133 31.375C444.456 31.9167 444.617 32.5365 444.617 33.2344C444.617 33.9688 444.456 34.599 444.133 35.125C443.81 35.651 443.339 36.0547 442.719 36.3359C442.104 36.6172 441.357 36.7578 440.477 36.7578ZM446.039 36.8672V36.6875C446.039 36.0781 446.127 35.513 446.304 34.9922C446.481 34.4661 446.737 34.0104 447.07 33.625C447.409 33.2344 447.82 32.9323 448.304 32.7188C448.794 32.5 449.346 32.3906 449.961 32.3906C450.58 32.3906 451.132 32.5 451.617 32.7188C452.106 32.9323 452.521 33.2344 452.859 33.625C453.198 34.0104 453.455 34.4661 453.632 34.9922C453.81 35.513 453.898 36.0781 453.898 36.6875V36.8672C453.898 37.4766 453.81 38.0417 453.632 38.5625C453.455 39.0833 453.198 39.5391 452.859 39.9297C452.521 40.3151 452.109 40.6172 451.625 40.8359C451.14 41.0495 450.591 41.1562 449.976 41.1562C449.356 41.1562 448.802 41.0495 448.312 40.8359C447.828 40.6172 447.416 40.3151 447.078 39.9297C446.739 39.5391 446.481 39.0833 446.304 38.5625C446.127 38.0417 446.039 37.4766 446.039 36.8672ZM447.922 36.6875V36.8672C447.922 37.2474 447.961 37.6068 448.039 37.9453C448.117 38.2839 448.239 38.5807 448.406 38.8359C448.573 39.0911 448.786 39.2917 449.047 39.4375C449.307 39.5833 449.617 39.6562 449.976 39.6562C450.325 39.6562 450.627 39.5833 450.882 39.4375C451.143 39.2917 451.356 39.0911 451.523 38.8359C451.69 38.5807 451.812 38.2839 451.89 37.9453C451.974 37.6068 452.015 37.2474 452.015 36.8672V36.6875C452.015 36.3125 451.974 35.9583 451.89 35.625C451.812 35.2865 451.687 34.987 451.515 34.7266C451.349 34.4661 451.135 34.263 450.875 34.1172C450.619 33.9661 450.315 33.8906 449.961 33.8906C449.606 33.8906 449.299 33.9661 449.039 34.1172C448.784 34.263 448.573 34.4661 448.406 34.7266C448.239 34.987 448.117 35.2865 448.039 35.625C447.961 35.9583 447.922 36.3125 447.922 36.6875ZM457.687 34.1562V41H455.804V32.5469H457.601L457.687 34.1562ZM460.273 32.4922L460.257 34.2422C460.143 34.2214 460.018 34.2057 459.882 34.1953C459.752 34.1849 459.622 34.1797 459.492 34.1797C459.169 34.1797 458.885 34.2266 458.64 34.3203C458.395 34.4089 458.189 34.5391 458.023 34.7109C457.861 34.8776 457.736 35.0807 457.648 35.3203C457.559 35.5599 457.507 35.8281 457.492 36.125L457.062 36.1562C457.062 35.625 457.114 35.1328 457.218 34.6797C457.322 34.2266 457.479 33.8281 457.687 33.4844C457.9 33.1406 458.166 32.8724 458.484 32.6797C458.807 32.487 459.179 32.3906 459.601 32.3906C459.716 32.3906 459.838 32.401 459.968 32.4219C460.104 32.4427 460.205 32.4661 460.273 32.4922ZM466.038 32.5469V33.9219H461.272V32.5469H466.038ZM462.647 30.4766H464.53V38.6641C464.53 38.9245 464.567 39.125 464.64 39.2656C464.718 39.401 464.825 39.4922 464.96 39.5391C465.095 39.5859 465.254 39.6094 465.437 39.6094C465.567 39.6094 465.692 39.6016 465.812 39.5859C465.931 39.5703 466.028 39.5547 466.101 39.5391L466.108 40.9766C465.952 41.0234 465.77 41.0651 465.562 41.1016C465.358 41.138 465.124 41.1562 464.858 41.1562C464.426 41.1562 464.043 41.0807 463.71 40.9297C463.377 40.7734 463.116 40.5208 462.929 40.1719C462.741 39.8229 462.647 39.3594 462.647 38.7812V30.4766ZM470.358 41H468.475V31.7344C468.475 31.1042 468.593 30.5755 468.827 30.1484C469.066 29.7161 469.408 29.3906 469.85 29.1719C470.293 28.9479 470.816 28.8359 471.421 28.8359C471.608 28.8359 471.793 28.849 471.975 28.875C472.158 28.8958 472.335 28.9297 472.507 28.9766L472.46 30.4297C472.356 30.4036 472.241 30.3854 472.116 30.375C471.996 30.3646 471.866 30.3594 471.725 30.3594C471.439 30.3594 471.191 30.4141 470.983 30.5234C470.78 30.6276 470.624 30.7812 470.514 30.9844C470.41 31.1875 470.358 31.4375 470.358 31.7344V41ZM472.1 32.5469V33.9219H467.178V32.5469H472.1ZM473.428 36.8672V36.6875C473.428 36.0781 473.517 35.513 473.694 34.9922C473.871 34.4661 474.126 34.0104 474.459 33.625C474.798 33.2344 475.209 32.9323 475.694 32.7188C476.183 32.5 476.735 32.3906 477.35 32.3906C477.97 32.3906 478.522 32.5 479.006 32.7188C479.496 32.9323 479.91 33.2344 480.248 33.625C480.587 34.0104 480.845 34.4661 481.022 34.9922C481.199 35.513 481.287 36.0781 481.287 36.6875V36.8672C481.287 37.4766 481.199 38.0417 481.022 38.5625C480.845 39.0833 480.587 39.5391 480.248 39.9297C479.91 40.3151 479.498 40.6172 479.014 40.8359C478.53 41.0495 477.98 41.1562 477.366 41.1562C476.746 41.1562 476.191 41.0495 475.702 40.8359C475.217 40.6172 474.806 40.3151 474.467 39.9297C474.129 39.5391 473.871 39.0833 473.694 38.5625C473.517 38.0417 473.428 37.4766 473.428 36.8672ZM475.311 36.6875V36.8672C475.311 37.2474 475.35 37.6068 475.428 37.9453C475.506 38.2839 475.629 38.5807 475.795 38.8359C475.962 39.0911 476.176 39.2917 476.436 39.4375C476.696 39.5833 477.006 39.6562 477.366 39.6562C477.715 39.6562 478.017 39.5833 478.272 39.4375C478.532 39.2917 478.746 39.0911 478.912 38.8359C479.079 38.5807 479.202 38.2839 479.28 37.9453C479.363 37.6068 479.405 37.2474 479.405 36.8672V36.6875C479.405 36.3125 479.363 35.9583 479.28 35.625C479.202 35.2865 479.077 34.987 478.905 34.7266C478.738 34.4661 478.524 34.263 478.264 34.1172C478.009 33.9661 477.704 33.8906 477.35 33.8906C476.996 33.8906 476.689 33.9661 476.428 34.1172C476.173 34.263 475.962 34.4661 475.795 34.7266C475.629 34.987 475.506 35.2865 475.428 35.625C475.35 35.9583 475.311 36.3125 475.311 36.6875ZM485.201 29V41H483.311V29H485.201ZM489.599 32.5469V41H487.709V32.5469H489.599ZM487.584 30.3281C487.584 30.0417 487.678 29.8047 487.865 29.6172C488.058 29.4245 488.323 29.3281 488.662 29.3281C488.995 29.3281 489.258 29.4245 489.451 29.6172C489.644 29.8047 489.74 30.0417 489.74 30.3281C489.74 30.6094 489.644 30.8438 489.451 31.0312C489.258 31.2188 488.995 31.3125 488.662 31.3125C488.323 31.3125 488.058 31.2188 487.865 31.0312C487.678 30.8438 487.584 30.6094 487.584 30.3281ZM491.623 36.8672V36.6875C491.623 36.0781 491.711 35.513 491.888 34.9922C492.065 34.4661 492.32 34.0104 492.654 33.625C492.992 33.2344 493.404 32.9323 493.888 32.7188C494.378 32.5 494.93 32.3906 495.544 32.3906C496.164 32.3906 496.716 32.5 497.201 32.7188C497.69 32.9323 498.104 33.2344 498.443 33.625C498.781 34.0104 499.039 34.4661 499.216 34.9922C499.393 35.513 499.482 36.0781 499.482 36.6875V36.8672C499.482 37.4766 499.393 38.0417 499.216 38.5625C499.039 39.0833 498.781 39.5391 498.443 39.9297C498.104 40.3151 497.693 40.6172 497.208 40.8359C496.724 41.0495 496.175 41.1562 495.56 41.1562C494.94 41.1562 494.386 41.0495 493.896 40.8359C493.412 40.6172 493 40.3151 492.662 39.9297C492.323 39.5391 492.065 39.0833 491.888 38.5625C491.711 38.0417 491.623 37.4766 491.623 36.8672ZM493.505 36.6875V36.8672C493.505 37.2474 493.544 37.6068 493.623 37.9453C493.701 38.2839 493.823 38.5807 493.99 38.8359C494.156 39.0911 494.37 39.2917 494.63 39.4375C494.891 39.5833 495.201 39.6562 495.56 39.6562C495.909 39.6562 496.211 39.5833 496.466 39.4375C496.727 39.2917 496.94 39.0911 497.107 38.8359C497.274 38.5807 497.396 38.2839 497.474 37.9453C497.557 37.6068 497.599 37.2474 497.599 36.8672V36.6875C497.599 36.3125 497.557 35.9583 497.474 35.625C497.396 35.2865 497.271 34.987 497.099 34.7266C496.932 34.4661 496.719 34.263 496.458 34.1172C496.203 33.9661 495.899 33.8906 495.544 33.8906C495.19 33.8906 494.883 33.9661 494.623 34.1172C494.367 34.263 494.156 34.4661 493.99 34.7266C493.823 34.987 493.701 35.2865 493.623 35.625C493.544 35.9583 493.505 36.3125 493.505 36.6875Z" fill="#2E2F42"/>
<path d="M548.875 37.2969H550.828C550.766 38.0417 550.557 38.7057 550.203 39.2891C549.849 39.8672 549.352 40.3229 548.711 40.6562C548.07 40.9896 547.292 41.1562 546.375 41.1562C545.672 41.1562 545.039 41.0312 544.477 40.7812C543.914 40.526 543.432 40.1667 543.031 39.7031C542.63 39.2344 542.323 38.6693 542.109 38.0078C541.901 37.3464 541.797 36.6068 541.797 35.7891V34.8438C541.797 34.026 541.904 33.2865 542.117 32.625C542.336 31.9635 542.648 31.3984 543.055 30.9297C543.461 30.4557 543.948 30.0938 544.516 29.8438C545.089 29.5938 545.732 29.4688 546.445 29.4688C547.352 29.4688 548.117 29.6354 548.742 29.9688C549.367 30.3021 549.852 30.763 550.195 31.3516C550.544 31.9401 550.758 32.6146 550.836 33.375H548.883C548.831 32.8854 548.716 32.4661 548.539 32.1172C548.367 31.7682 548.112 31.5026 547.773 31.3203C547.435 31.1328 546.992 31.0391 546.445 31.0391C545.997 31.0391 545.607 31.1224 545.273 31.2891C544.94 31.4557 544.661 31.7005 544.438 32.0234C544.214 32.3464 544.044 32.7448 543.93 33.2188C543.82 33.6875 543.766 34.224 543.766 34.8281V35.7891C543.766 36.362 543.815 36.8828 543.914 37.3516C544.018 37.8151 544.174 38.2135 544.383 38.5469C544.596 38.8802 544.867 39.138 545.195 39.3203C545.523 39.5026 545.917 39.5938 546.375 39.5938C546.932 39.5938 547.383 39.5052 547.727 39.3281C548.076 39.151 548.339 38.8932 548.516 38.5547C548.698 38.2109 548.818 37.7917 548.875 37.2969ZM552.382 36.8672V36.6875C552.382 36.0781 552.471 35.513 552.648 34.9922C552.825 34.4661 553.08 34.0104 553.414 33.625C553.752 33.2344 554.164 32.9323 554.648 32.7188C555.138 32.5 555.69 32.3906 556.304 32.3906C556.924 32.3906 557.476 32.5 557.961 32.7188C558.45 32.9323 558.864 33.2344 559.203 33.625C559.541 34.0104 559.799 34.4661 559.976 34.9922C560.153 35.513 560.242 36.0781 560.242 36.6875V36.8672C560.242 37.4766 560.153 38.0417 559.976 38.5625C559.799 39.0833 559.541 39.5391 559.203 39.9297C558.864 40.3151 558.453 40.6172 557.968 40.8359C557.484 41.0495 556.935 41.1562 556.32 41.1562C555.7 41.1562 555.146 41.0495 554.656 40.8359C554.172 40.6172 553.76 40.3151 553.422 39.9297C553.083 39.5391 552.825 39.0833 552.648 38.5625C552.471 38.0417 552.382 37.4766 552.382 36.8672ZM554.265 36.6875V36.8672C554.265 37.2474 554.304 37.6068 554.382 37.9453C554.461 38.2839 554.583 38.5807 554.75 38.8359C554.916 39.0911 555.13 39.2917 555.39 39.4375C555.651 39.5833 555.961 39.6562 556.32 39.6562C556.669 39.6562 556.971 39.5833 557.226 39.4375C557.487 39.2917 557.7 39.0911 557.867 38.8359C558.034 38.5807 558.156 38.2839 558.234 37.9453C558.317 37.6068 558.359 37.2474 558.359 36.8672V36.6875C558.359 36.3125 558.317 35.9583 558.234 35.625C558.156 35.2865 558.031 34.987 557.859 34.7266C557.692 34.4661 557.479 34.263 557.218 34.1172C556.963 33.9661 556.659 33.8906 556.304 33.8906C555.95 33.8906 555.643 33.9661 555.382 34.1172C555.127 34.263 554.916 34.4661 554.75 34.7266C554.583 34.987 554.461 35.2865 554.382 35.625C554.304 35.9583 554.265 36.3125 554.265 36.6875ZM564.007 34.3516V41H562.124V32.5469H563.898L564.007 34.3516ZM563.671 36.4609L563.062 36.4531C563.067 35.8542 563.15 35.3047 563.312 34.8047C563.479 34.3047 563.708 33.875 563.999 33.5156C564.296 33.1562 564.65 32.8802 565.062 32.6875C565.473 32.4896 565.932 32.3906 566.437 32.3906C566.843 32.3906 567.21 32.4479 567.538 32.5625C567.872 32.6719 568.156 32.8516 568.39 33.1016C568.63 33.3516 568.812 33.6771 568.937 34.0781C569.062 34.474 569.124 34.9609 569.124 35.5391V41H567.234V35.5312C567.234 35.125 567.174 34.8047 567.054 34.5703C566.939 34.3307 566.77 34.1615 566.546 34.0625C566.327 33.9583 566.054 33.9062 565.726 33.9062C565.403 33.9062 565.114 33.974 564.859 34.1094C564.604 34.2448 564.387 34.4297 564.21 34.6641C564.038 34.8984 563.906 35.1693 563.812 35.4766C563.718 35.7839 563.671 36.112 563.671 36.4609ZM575.241 32.5469V33.9219H570.476V32.5469H575.241ZM571.851 30.4766H573.733V38.6641C573.733 38.9245 573.77 39.125 573.843 39.2656C573.921 39.401 574.028 39.4922 574.163 39.5391C574.299 39.5859 574.457 39.6094 574.64 39.6094C574.77 39.6094 574.895 39.6016 575.015 39.5859C575.134 39.5703 575.231 39.5547 575.304 39.5391L575.312 40.9766C575.155 41.0234 574.973 41.0651 574.765 41.1016C574.562 41.138 574.327 41.1562 574.062 41.1562C573.629 41.1562 573.246 41.0807 572.913 40.9297C572.58 40.7734 572.319 40.5208 572.132 40.1719C571.944 39.8229 571.851 39.3594 571.851 38.7812V30.4766ZM581.78 39.3047V35.2734C581.78 34.9714 581.725 34.7109 581.616 34.4922C581.507 34.2734 581.34 34.1042 581.116 33.9844C580.897 33.8646 580.621 33.8047 580.288 33.8047C579.981 33.8047 579.715 33.8568 579.491 33.9609C579.267 34.0651 579.092 34.2057 578.967 34.3828C578.842 34.5599 578.78 34.7604 578.78 34.9844H576.905C576.905 34.651 576.986 34.3281 577.147 34.0156C577.309 33.7031 577.543 33.4245 577.85 33.1797C578.158 32.9349 578.525 32.7422 578.952 32.6016C579.379 32.4609 579.858 32.3906 580.389 32.3906C581.025 32.3906 581.587 32.4974 582.077 32.7109C582.572 32.9245 582.96 33.2474 583.241 33.6797C583.527 34.1068 583.671 34.6432 583.671 35.2891V39.0469C583.671 39.4323 583.697 39.7786 583.749 40.0859C583.806 40.388 583.887 40.651 583.991 40.875V41H582.061C581.973 40.7969 581.902 40.5391 581.85 40.2266C581.803 39.9089 581.78 39.6016 581.78 39.3047ZM582.053 35.8594L582.069 37.0234H580.717C580.369 37.0234 580.061 37.0573 579.796 37.125C579.53 37.1875 579.309 37.2812 579.132 37.4062C578.954 37.5312 578.822 37.6823 578.733 37.8594C578.645 38.0365 578.6 38.237 578.6 38.4609C578.6 38.6849 578.652 38.8906 578.757 39.0781C578.861 39.2604 579.012 39.4036 579.21 39.5078C579.413 39.612 579.658 39.6641 579.944 39.6641C580.329 39.6641 580.665 39.5859 580.952 39.4297C581.244 39.2682 581.473 39.0729 581.639 38.8438C581.806 38.6094 581.895 38.388 581.905 38.1797L582.514 39.0156C582.452 39.2292 582.345 39.4583 582.194 39.7031C582.043 39.9479 581.845 40.1823 581.6 40.4062C581.361 40.625 581.072 40.8047 580.733 40.9453C580.4 41.0859 580.014 41.1562 579.577 41.1562C579.025 41.1562 578.533 41.0469 578.1 40.8281C577.668 40.6042 577.329 40.3047 577.085 39.9297C576.84 39.5495 576.717 39.1198 576.717 38.6406C576.717 38.1927 576.801 37.7969 576.967 37.4531C577.139 37.1042 577.389 36.8125 577.717 36.5781C578.051 36.3438 578.457 36.1667 578.936 36.0469C579.415 35.9219 579.962 35.8594 580.577 35.8594H582.053ZM589.412 39.6562C589.72 39.6562 589.996 39.5964 590.241 39.4766C590.491 39.3516 590.691 39.1797 590.842 38.9609C590.998 38.7422 591.084 38.4896 591.1 38.2031H592.873C592.863 38.75 592.702 39.2474 592.389 39.6953C592.077 40.1432 591.662 40.5 591.147 40.7656C590.631 41.026 590.061 41.1562 589.436 41.1562C588.79 41.1562 588.228 41.0469 587.748 40.8281C587.269 40.6042 586.871 40.2969 586.553 39.9062C586.235 39.5156 585.996 39.0651 585.834 38.5547C585.678 38.0443 585.6 37.4974 585.6 36.9141V36.6406C585.6 36.0573 585.678 35.5104 585.834 35C585.996 34.4844 586.235 34.0312 586.553 33.6406C586.871 33.25 587.269 32.9453 587.748 32.7266C588.228 32.5026 588.787 32.3906 589.428 32.3906C590.105 32.3906 590.699 32.526 591.209 32.7969C591.72 33.0625 592.121 33.4349 592.412 33.9141C592.709 34.388 592.863 34.9401 592.873 35.5703H591.1C591.084 35.2578 591.006 34.9766 590.866 34.7266C590.73 34.4714 590.537 34.2682 590.287 34.1172C590.043 33.9661 589.748 33.8906 589.405 33.8906C589.024 33.8906 588.709 33.9688 588.459 34.125C588.209 34.276 588.014 34.4844 587.873 34.75C587.733 35.0104 587.631 35.3047 587.569 35.6328C587.511 35.9557 587.483 36.2917 587.483 36.6406V36.9141C587.483 37.263 587.511 37.6016 587.569 37.9297C587.626 38.2578 587.725 38.5521 587.866 38.8125C588.011 39.0677 588.209 39.2734 588.459 39.4297C588.709 39.5807 589.027 39.6562 589.412 39.6562ZM598.514 32.5469V33.9219H593.748V32.5469H598.514ZM595.123 30.4766H597.006V38.6641C597.006 38.9245 597.042 39.125 597.115 39.2656C597.193 39.401 597.3 39.4922 597.436 39.5391C597.571 39.5859 597.73 39.6094 597.912 39.6094C598.042 39.6094 598.167 39.6016 598.287 39.5859C598.407 39.5703 598.503 39.5547 598.576 39.5391L598.584 40.9766C598.428 41.0234 598.246 41.0651 598.037 41.1016C597.834 41.138 597.6 41.1562 597.334 41.1562C596.902 41.1562 596.519 41.0807 596.186 40.9297C595.852 40.7734 595.592 40.5208 595.404 40.1719C595.217 39.8229 595.123 39.3594 595.123 38.7812V30.4766ZM605.029 38.7109C605.029 38.5234 604.982 38.3542 604.888 38.2031C604.795 38.0469 604.615 37.9062 604.349 37.7812C604.089 37.6562 603.704 37.5417 603.193 37.4375C602.745 37.3385 602.334 37.2214 601.959 37.0859C601.589 36.9453 601.271 36.776 601.006 36.5781C600.74 36.3802 600.534 36.1458 600.388 35.875C600.243 35.6042 600.17 35.2917 600.17 34.9375C600.17 34.5938 600.245 34.2682 600.396 33.9609C600.547 33.6536 600.763 33.3828 601.045 33.1484C601.326 32.9141 601.667 32.7292 602.068 32.5938C602.474 32.4583 602.928 32.3906 603.428 32.3906C604.136 32.3906 604.743 32.5104 605.248 32.75C605.758 32.9844 606.149 33.3047 606.42 33.7109C606.691 34.112 606.826 34.5651 606.826 35.0703H604.943C604.943 34.8464 604.886 34.638 604.771 34.4453C604.662 34.2474 604.495 34.0885 604.271 33.9688C604.047 33.8438 603.766 33.7812 603.428 33.7812C603.105 33.7812 602.836 33.8333 602.623 33.9375C602.414 34.0365 602.258 34.1667 602.154 34.3281C602.055 34.4896 602.006 34.6667 602.006 34.8594C602.006 35 602.032 35.1276 602.084 35.2422C602.141 35.3516 602.235 35.4531 602.365 35.5469C602.495 35.6354 602.672 35.7188 602.896 35.7969C603.125 35.875 603.412 35.9505 603.756 36.0234C604.401 36.1589 604.956 36.3333 605.42 36.5469C605.888 36.7552 606.248 37.026 606.498 37.3594C606.748 37.6875 606.873 38.1042 606.873 38.6094C606.873 38.9844 606.792 39.3281 606.631 39.6406C606.474 39.9479 606.245 40.2161 605.943 40.4453C605.641 40.6693 605.279 40.8438 604.857 40.9688C604.441 41.0938 603.972 41.1562 603.451 41.1562C602.685 41.1562 602.037 41.0208 601.506 40.75C600.974 40.474 600.571 40.1224 600.295 39.6953C600.024 39.263 599.888 38.8151 599.888 38.3516H601.709C601.73 38.7005 601.826 38.9792 601.998 39.1875C602.175 39.3906 602.394 39.5391 602.654 39.6328C602.92 39.7214 603.193 39.7656 603.474 39.7656C603.813 39.7656 604.097 39.7214 604.326 39.6328C604.555 39.5391 604.73 39.4141 604.849 39.2578C604.969 39.0964 605.029 38.9141 605.029 38.7109Z" fill="#2E2F42"/>
<path d="M161.706 29.756H164.01L165.468 33.986L166.944 29.756H169.23L167.034 35.57L168.654 39.638L172.272 29.72H174.972L169.86 42.5H167.718L165.468 37.136L163.236 42.5H161.094L156 29.72H158.664L162.3 39.638L163.884 35.57L161.706 29.756ZM185.695 40.322V42.5H176.821V29.72H185.533V31.898H179.305V34.976H184.687V36.992H179.305V40.322H185.695ZM198.468 39.206C198.468 39.926 198.282 40.532 197.91 41.024C197.538 41.504 197.034 41.87 196.398 42.122C195.774 42.374 195.09 42.5 194.346 42.5H188.172V29.72H195.012C195.612 29.72 196.128 29.882 196.56 30.206C197.004 30.518 197.34 30.926 197.568 31.43C197.808 31.922 197.928 32.438 197.928 32.978C197.928 33.59 197.772 34.172 197.46 34.724C197.148 35.276 196.692 35.684 196.092 35.948C196.824 36.164 197.4 36.554 197.82 37.118C198.252 37.682 198.468 38.378 198.468 39.206ZM195.966 38.738C195.966 38.414 195.9 38.126 195.768 37.874C195.636 37.61 195.456 37.406 195.228 37.262C195.012 37.106 194.76 37.028 194.472 37.028H190.656V40.394H194.346C194.646 40.394 194.916 40.322 195.156 40.178C195.408 40.022 195.606 39.818 195.75 39.566C195.894 39.314 195.966 39.038 195.966 38.738ZM190.656 31.844V35.066H193.968C194.244 35.066 194.496 35 194.724 34.868C194.952 34.736 195.132 34.55 195.264 34.31C195.408 34.07 195.48 33.782 195.48 33.446C195.48 33.122 195.414 32.84 195.282 32.6C195.162 32.36 194.994 32.174 194.778 32.042C194.574 31.91 194.34 31.844 194.076 31.844H190.656Z" fill="#4D5AE5"/>
<path d="M208.946 33.068C208.862 32.984 208.706 32.87 208.478 32.726C208.262 32.582 207.992 32.444 207.668 32.312C207.356 32.18 207.014 32.066 206.642 31.97C206.27 31.862 205.892 31.808 205.508 31.808C204.836 31.808 204.326 31.934 203.978 32.186C203.642 32.438 203.474 32.792 203.474 33.248C203.474 33.596 203.582 33.872 203.798 34.076C204.014 34.28 204.338 34.454 204.77 34.598C205.202 34.742 205.742 34.898 206.39 35.066C207.23 35.27 207.956 35.522 208.568 35.822C209.192 36.11 209.666 36.494 209.99 36.974C210.326 37.442 210.494 38.066 210.494 38.846C210.494 39.53 210.368 40.118 210.116 40.61C209.864 41.09 209.516 41.48 209.072 41.78C208.628 42.08 208.124 42.302 207.56 42.446C206.996 42.578 206.396 42.644 205.76 42.644C205.124 42.644 204.488 42.578 203.852 42.446C203.216 42.314 202.604 42.128 202.016 41.888C201.428 41.636 200.888 41.336 200.396 40.988L201.494 38.846C201.602 38.954 201.794 39.098 202.07 39.278C202.346 39.446 202.682 39.62 203.078 39.8C203.474 39.968 203.906 40.112 204.374 40.232C204.842 40.352 205.316 40.412 205.796 40.412C206.468 40.412 206.978 40.298 207.326 40.07C207.674 39.842 207.848 39.518 207.848 39.098C207.848 38.714 207.71 38.414 207.434 38.198C207.158 37.982 206.774 37.796 206.282 37.64C205.79 37.472 205.208 37.292 204.536 37.1C203.732 36.872 203.06 36.62 202.52 36.344C201.98 36.056 201.578 35.696 201.314 35.264C201.05 34.832 200.918 34.292 200.918 33.644C200.918 32.768 201.122 32.036 201.53 31.448C201.95 30.848 202.514 30.398 203.222 30.098C203.93 29.786 204.716 29.63 205.58 29.63C206.18 29.63 206.744 29.696 207.272 29.828C207.812 29.96 208.316 30.134 208.784 30.35C209.252 30.566 209.672 30.8 210.044 31.052L208.946 33.068ZM222.469 31.898H218.383V42.5H215.917V31.898H211.831V29.72H222.469V31.898ZM230.014 42.59C228.994 42.59 228.124 42.422 227.404 42.086C226.696 41.738 226.12 41.264 225.676 40.664C225.244 40.064 224.926 39.386 224.722 38.63C224.518 37.862 224.416 37.064 224.416 36.236V29.72H226.9V36.236C226.9 36.764 226.948 37.28 227.044 37.784C227.152 38.276 227.326 38.72 227.566 39.116C227.806 39.512 228.124 39.824 228.52 40.052C228.916 40.28 229.408 40.394 229.996 40.394C230.596 40.394 231.094 40.28 231.49 40.052C231.898 39.812 232.216 39.494 232.444 39.098C232.684 38.702 232.858 38.258 232.966 37.766C233.074 37.262 233.128 36.752 233.128 36.236V29.72H235.594V36.236C235.594 37.112 235.486 37.934 235.27 38.702C235.066 39.47 234.736 40.148 234.28 40.736C233.836 41.312 233.26 41.768 232.552 42.104C231.844 42.428 230.998 42.59 230.014 42.59ZM238.636 42.5V29.72H243.28C244.672 29.72 245.836 30.008 246.772 30.584C247.708 31.148 248.41 31.916 248.878 32.888C249.346 33.848 249.58 34.916 249.58 36.092C249.58 37.388 249.322 38.516 248.806 39.476C248.29 40.436 247.558 41.18 246.61 41.708C245.674 42.236 244.564 42.5 243.28 42.5H238.636ZM247.078 36.092C247.078 35.264 246.928 34.538 246.628 33.914C246.328 33.278 245.896 32.786 245.332 32.438C244.768 32.078 244.084 31.898 243.28 31.898H241.12V40.322H243.28C244.096 40.322 244.786 40.142 245.35 39.782C245.914 39.41 246.34 38.906 246.628 38.27C246.928 37.622 247.078 36.896 247.078 36.092ZM252.06 42.5V29.72H254.544V42.5H252.06ZM263.205 42.59C262.269 42.59 261.417 42.41 260.649 42.05C259.893 41.69 259.239 41.204 258.687 40.592C258.147 39.968 257.727 39.272 257.427 38.504C257.127 37.724 256.977 36.926 256.977 36.11C256.977 35.258 257.133 34.448 257.445 33.68C257.769 32.9 258.207 32.21 258.759 31.61C259.323 30.998 259.983 30.518 260.739 30.17C261.507 29.81 262.347 29.63 263.259 29.63C264.183 29.63 265.023 29.816 265.779 30.188C266.547 30.56 267.201 31.058 267.741 31.682C268.281 32.306 268.701 33.002 269.001 33.77C269.301 34.538 269.451 35.33 269.451 36.146C269.451 36.986 269.295 37.796 268.983 38.576C268.671 39.344 268.233 40.034 267.669 40.646C267.117 41.246 266.457 41.72 265.689 42.068C264.933 42.416 264.105 42.59 263.205 42.59ZM259.497 36.11C259.497 36.662 259.581 37.196 259.749 37.712C259.917 38.228 260.157 38.69 260.469 39.098C260.793 39.494 261.183 39.812 261.639 40.052C262.107 40.28 262.635 40.394 263.223 40.394C263.823 40.394 264.357 40.274 264.825 40.034C265.293 39.782 265.683 39.452 265.995 39.044C266.307 38.624 266.541 38.162 266.697 37.658C266.865 37.142 266.949 36.626 266.949 36.11C266.949 35.558 266.859 35.03 266.679 34.526C266.511 34.01 266.265 33.554 265.941 33.158C265.629 32.75 265.239 32.432 264.771 32.204C264.315 31.964 263.799 31.844 263.223 31.844C262.611 31.844 262.071 31.97 261.603 32.222C261.147 32.462 260.763 32.786 260.451 33.194C260.139 33.602 259.899 34.058 259.731 34.562C259.575 35.066 259.497 35.582 259.497 36.11Z" fill="#2E2F42"/>
</svg>
